# xmcd
#
# Track frame offsets:
#	150
#	17633
#	28372
#	45112
#	61503
#	81911
#	96989
#	113712
#	125453
#	145535
#	161382
#	167786
#
# Disc length: 2502 seconds
#
# Revision: 0
# Processed by: cddbd v1.5.1PL0 Copyright (c) Steve Scherf et al.
# Submitted via: dBpowerAMP V4.0
#
DISCID=8c09c40c
DTITLE=Authentic Worship - Country Worship
DYEAR=1900
DGENRE=Country
TTITLE0=God is good all the time
TTITLE1=Thank you Jesus
TTITLE2=He hideth my soul
TTITLE3=Great is thy faithfulness
TTITLE4=You are the King of Glory
TTITLE5=Nothing but the blood of Jesus
TTITLE6=There is a redeemer
TTITLE7=What a friend we have in Jesus
TTITLE8=I give thanks
TTITLE9=The happy song
TTITLE10=He is got the whole world in his hands
TTITLE11=Pour out my heart
EXTD=Authentic Worship Country
EXTT0=
EXTT1=
EXTT2=
EXTT3=
EXTT4=
EXTT5=
EXTT6=
EXTT7=
EXTT8=
EXTT9=
EXTT10=
EXTT11=
PLAYORDER=
